<?xml version="1.0" encoding="utf-8"?>
<!-- Generator: Adobe Illustrator 15.0.0, SVG Export Plug-In . SVG Version: 6.00 Build 0)  -->
<!DOCTYPE svg PUBLIC "-//W3C//DTD SVG 1.1//EN" "http://www.w3.org/Graphics/SVG/1.1/DTD/svg11.dtd">
<svg version="1.1" id="Layer_1" xmlns="http://www.w3.org/2000/svg" xmlns:xlink="http://www.w3.org/1999/xlink" x="0px" y="0px"
	 width="110px" height="110px" viewBox="0 0 110 110" enable-background="new 0 0 110 110" xml:space="preserve">
<rect x="1.089" y="0.167" fill="#CCCCCC" width="108.595" height="109.432"/>
<g>
	<path fill="#FFFFFF" d="M14.112,60.189v-5.646h1.139v5.646H14.112z"/>
	<path fill="#FFFFFF" d="M16.322,60.189v-5.646h1.706l1.024,3.852l1.013-3.852h1.708v5.646h-1.059v-4.445l-1.12,4.445h-1.097
		l-1.118-4.445v4.445H16.322z"/>
	<path fill="#FFFFFF" d="M27.998,60.189h-1.24l-0.493-1.282h-2.257l-0.466,1.282h-1.208l2.198-5.646h1.206L27.998,60.189z
		 M25.898,57.956l-0.779-2.095l-0.762,2.095H25.898z"/>
	<path fill="#FFFFFF" d="M31.227,58.114v-0.951h2.458v2.248c-0.239,0.23-0.584,0.433-1.038,0.61
		c-0.453,0.177-0.911,0.264-1.376,0.264c-0.591,0-1.104-0.124-1.543-0.372c-0.44-0.247-0.77-0.602-0.991-1.062
		c-0.221-0.461-0.33-0.963-0.33-1.504c0-0.588,0.122-1.111,0.368-1.567c0.247-0.457,0.608-0.807,1.083-1.051
		c0.362-0.188,0.812-0.281,1.352-0.281c0.701,0,1.249,0.146,1.641,0.441c0.395,0.293,0.649,0.699,0.762,1.218l-1.133,0.213
		c-0.079-0.278-0.229-0.497-0.449-0.656c-0.219-0.162-0.493-0.242-0.822-0.242c-0.499,0-0.894,0.158-1.188,0.473
		c-0.293,0.316-0.44,0.785-0.44,1.405c0,0.671,0.149,1.172,0.445,1.507c0.298,0.335,0.69,0.504,1.172,0.504
		c0.238,0,0.477-0.048,0.718-0.143c0.24-0.092,0.446-0.205,0.617-0.339v-0.716H31.227z"/>
	<path fill="#FFFFFF" d="M34.736,60.189v-5.646h4.185v0.955h-3.046v1.25h2.834v0.953h-2.834v1.535h3.153v0.952H34.736z"/>
	<path fill="#FFFFFF" d="M42.187,60.189v-5.646h1.829c0.693,0,1.145,0.029,1.354,0.084c0.324,0.086,0.594,0.269,0.812,0.553
		c0.218,0.284,0.329,0.65,0.329,1.1c0,0.346-0.063,0.637-0.189,0.873c-0.127,0.237-0.286,0.422-0.48,0.557s-0.391,0.224-0.591,0.267
		c-0.272,0.055-0.667,0.081-1.183,0.081h-0.743v2.131H42.187z M43.326,55.499v1.602h0.624c0.45,0,0.75-0.03,0.901-0.089
		c0.151-0.059,0.271-0.15,0.356-0.276c0.086-0.126,0.129-0.271,0.129-0.44c0-0.204-0.061-0.374-0.181-0.506
		c-0.122-0.135-0.273-0.218-0.46-0.251c-0.135-0.027-0.408-0.04-0.819-0.04H43.326z"/>
	<path fill="#FFFFFF" d="M47.476,60.189V54.59h1.14v4.647h2.834v0.952H47.476z"/>
	<path fill="#FFFFFF" d="M57.353,60.189h-1.239l-0.493-1.282h-2.255l-0.467,1.282H51.69l2.198-5.646h1.205L57.353,60.189z
		 M55.255,57.956l-0.777-2.095l-0.763,2.095H55.255z"/>
	<path fill="#FFFFFF" d="M61.569,58.114l1.105,0.349c-0.169,0.618-0.451,1.075-0.845,1.374c-0.394,0.298-0.895,0.448-1.501,0.448
		c-0.749,0-1.366-0.255-1.847-0.768c-0.484-0.513-0.724-1.212-0.724-2.101c0-0.94,0.241-1.669,0.727-2.189
		c0.484-0.519,1.123-0.78,1.915-0.78c0.689,0,1.249,0.204,1.682,0.611c0.256,0.242,0.449,0.589,0.576,1.041l-1.126,0.27
		c-0.067-0.293-0.208-0.524-0.419-0.694c-0.211-0.169-0.469-0.253-0.771-0.253c-0.419,0-0.76,0.15-1.019,0.45
		c-0.261,0.303-0.393,0.787-0.393,1.459c0,0.715,0.13,1.223,0.388,1.526c0.255,0.303,0.591,0.454,0.998,0.454
		c0.304,0,0.564-0.098,0.783-0.289C61.317,58.83,61.474,58.527,61.569,58.114z"/>
	<path fill="#FFFFFF" d="M63.652,60.189v-5.646h4.186v0.955h-3.047v1.25h2.835v0.953h-2.835v1.535h3.154v0.952H63.652z"/>
	<path fill="#FFFFFF" d="M68.918,60.189v-5.646h1.138v2.222h2.233v-2.222h1.139v5.646h-1.139v-2.468h-2.233v2.468H68.918z"/>
	<path fill="#FFFFFF" d="M74.375,57.402c0-0.576,0.089-1.058,0.26-1.448c0.127-0.289,0.303-0.547,0.526-0.774
		c0.222-0.229,0.463-0.398,0.729-0.509c0.352-0.148,0.756-0.223,1.215-0.223c0.832,0,1.498,0.258,1.998,0.773
		c0.499,0.517,0.749,1.233,0.749,2.154c0,0.908-0.249,1.621-0.744,2.14c-0.496,0.513-1.158,0.77-1.986,0.77
		c-0.84,0-1.507-0.255-2.003-0.768C74.624,59.005,74.375,58.3,74.375,57.402z M75.55,57.363c0,0.639,0.149,1.123,0.445,1.453
		c0.293,0.33,0.667,0.495,1.123,0.495c0.454,0,0.827-0.163,1.119-0.491c0.29-0.329,0.437-0.818,0.437-1.473
		c0-0.647-0.142-1.131-0.426-1.449c-0.282-0.316-0.661-0.476-1.13-0.476c-0.472,0-0.848,0.16-1.136,0.483
		C75.695,56.228,75.55,56.712,75.55,57.363z"/>
	<path fill="#FFFFFF" d="M80.773,60.189V54.59h1.139v4.647h2.833v0.952H80.773z"/>
	<path fill="#FFFFFF" d="M85.555,54.544h2.083c0.47,0,0.826,0.036,1.073,0.108c0.331,0.097,0.615,0.27,0.852,0.52
		c0.237,0.248,0.417,0.552,0.539,0.914c0.124,0.36,0.185,0.806,0.185,1.334c0,0.465-0.057,0.864-0.172,1.203
		c-0.143,0.41-0.343,0.743-0.605,0.995c-0.196,0.193-0.465,0.345-0.802,0.451c-0.25,0.079-0.585,0.12-1.008,0.12h-2.145V54.544z
		 M86.693,55.499v3.739h0.852c0.319,0,0.549-0.017,0.688-0.054c0.187-0.044,0.341-0.122,0.461-0.234
		c0.123-0.109,0.222-0.293,0.299-0.545c0.076-0.252,0.115-0.598,0.115-1.034s-0.039-0.771-0.115-1.006
		c-0.077-0.232-0.184-0.415-0.323-0.546c-0.139-0.131-0.314-0.22-0.528-0.265c-0.158-0.036-0.471-0.055-0.936-0.055H86.693z"/>
	<path fill="#FFFFFF" d="M91.253,60.189v-5.646h4.186v0.955h-3.046v1.25h2.835v0.953h-2.835v1.535h3.154v0.952H91.253z"/>
	<path fill="#FFFFFF" d="M96.517,60.189v-5.646h2.397c0.604,0,1.043,0.051,1.316,0.152c0.273,0.102,0.491,0.282,0.656,0.541
		c0.165,0.26,0.247,0.556,0.247,0.89c0,0.424-0.123,0.773-0.375,1.048c-0.248,0.277-0.619,0.451-1.115,0.523
		c0.248,0.145,0.45,0.302,0.61,0.473c0.161,0.174,0.376,0.477,0.648,0.917l0.69,1.102h-1.364l-0.823-1.229
		c-0.294-0.438-0.493-0.713-0.6-0.828c-0.108-0.114-0.224-0.192-0.346-0.236c-0.119-0.043-0.311-0.063-0.571-0.063h-0.23v2.357
		H96.517z M97.658,56.931h0.843c0.546,0,0.887-0.021,1.023-0.069c0.137-0.046,0.241-0.126,0.319-0.238
		c0.076-0.113,0.115-0.253,0.115-0.422c0-0.191-0.05-0.344-0.152-0.461c-0.1-0.118-0.243-0.191-0.43-0.221
		c-0.092-0.014-0.367-0.021-0.83-0.021h-0.889V56.931z"/>
</g>
</svg>
