<?xml version="1.0" encoding="UTF-8" standalone="no"?>
<!-- Created with Inkscape (http://www.inkscape.org/) -->

<svg
   version="1.1"
   id="svg1"
   width="1336.4667"
   height="648.70667"
   viewBox="0 0 1336.4667 648.70667"
   sodipodi:docname="OnionLeaf.eps"
   xmlns:inkscape="http://www.inkscape.org/namespaces/inkscape"
   xmlns:sodipodi="http://sodipodi.sourceforge.net/DTD/sodipodi-0.dtd"
   xmlns="http://www.w3.org/2000/svg"
   xmlns:svg="http://www.w3.org/2000/svg">
  <defs
     id="defs1" />
  <sodipodi:namedview
     id="namedview1"
     pagecolor="#ffffff"
     bordercolor="#000000"
     borderopacity="0.25"
     inkscape:showpageshadow="2"
     inkscape:pageopacity="0.0"
     inkscape:pagecheckerboard="0"
     inkscape:deskcolor="#d1d1d1">
    <inkscape:page
       x="0"
       y="0"
       inkscape:label="1"
       id="page1"
       width="1336.4667"
       height="648.70667"
       margin="0"
       bleed="0" />
  </sodipodi:namedview>
  <g
     id="g1"
     inkscape:groupmode="layer"
     inkscape:label="1">
    <g
       id="group-R5">
      <path
         id="path2"
         d="M 4470.87,1907.97 V 1632.02 H 4579 v -52.19 h -173.94 v 328.14 h 65.81"
         style="fill:#629832;fill-opacity:1;fill-rule:nonzero;stroke:none"
         transform="matrix(0.13333333,0,0,-0.13333333,0,648.70667)" />
      <path
         id="path3"
         d="m 4779.23,1734.51 h 123.64 c -0.95,34.31 -28.21,55.93 -62.06,55.93 -31.49,0 -56.42,-20.21 -61.58,-55.93 z m 63.47,-158.91 c -75.7,0 -130.7,52.66 -130.7,134.45 0,82.28 53.6,134.46 130.7,134.46 75.21,0 128.34,-51.24 128.34,-128.81 0,-8.47 -0.47,-16.93 -1.88,-25.39 h -190.4 c 3.29,-38.55 29.61,-60.18 62.52,-60.18 28.21,0 43.72,14.11 52.19,31.51 h 70.98 c -14.1,-47.96 -57.35,-86.04 -121.75,-86.04"
         style="fill:#629832;fill-opacity:1;fill-rule:nonzero;stroke:none"
         transform="matrix(0.13333333,0,0,-0.13333333,0,648.70667)" />
      <path
         id="path4"
         d="m 5245.99,1786.68 c -35.26,0 -68.64,-26.32 -68.64,-75.69 0,-49.35 33.38,-77.57 68.64,-77.57 36.2,0 69.11,27.27 69.11,76.63 0,49.37 -32.91,76.63 -69.11,76.63 z m -16.93,57.83 c 41.85,0 70.52,-19.74 86.04,-41.37 v 37.14 h 66.29 v -260.45 h -66.29 v 38.08 c -15.52,-22.56 -45.14,-42.31 -86.51,-42.31 -65.82,0 -118.46,54.06 -118.46,135.39 0,81.34 52.64,133.52 118.93,133.52"
         style="fill:#629832;fill-opacity:1;fill-rule:nonzero;stroke:none"
         transform="matrix(0.13333333,0,0,-0.13333333,0,648.70667)" />
      <path
         id="path5"
         d="m 5560.91,1786.22 h -29.62 v 54.06 h 29.62 v 13.16 c 0,63.94 36.2,93.56 109.54,91.68 v -55.48 c -31.97,0.94 -42.78,-9.4 -42.78,-38.55 v -10.81 h 45.59 v -54.06 h -45.59 v -206.39 h -66.76 v 206.39"
         style="fill:#629832;fill-opacity:1;fill-rule:nonzero;stroke:none"
         transform="matrix(0.13333333,0,0,-0.13333333,0,648.70667)" />
      <path
         id="path6"
         d="M 195.332,1151.02 H 106.406 V 995.211 h 88.926 c 59.285,0 85.891,31.159 85.891,79.039 0,47.12 -26.606,76.77 -85.891,76.77 z m 3.801,88.16 c 127.683,0 191.531,-73.73 191.531,-162.64 0,-64.61 -35.723,-129.97 -120.851,-152.778 L 396.738,708.68 H 273.613 L 156.57,915.398 H 106.406 V 708.68 H 0 v 530.5 h 199.133"
         style="fill:#a81674;fill-opacity:1;fill-rule:nonzero;stroke:none"
         transform="matrix(0.13333333,0,0,-0.13333333,0,648.70667)" />
      <path
         id="path7"
         d="m 568.484,958.73 h 199.895 c -1.524,55.48 -45.606,90.44 -100.332,90.44 -50.918,0 -91.199,-32.68 -99.563,-90.44 z m 102.61,-256.89 c -122.371,0 -211.297,85.121 -211.297,217.359 0,133.011 86.648,217.381 211.297,217.381 121.601,0 207.492,-82.85 207.492,-208.26 0,-13.679 -0.766,-27.359 -3.051,-41.039 H 567.727 c 5.32,-62.32 47.878,-97.289 101.082,-97.289 45.605,0 70.683,22.809 84.367,50.93 H 867.938 C 845.137,763.402 775.215,701.84 671.094,701.84"
         style="fill:#a81674;fill-opacity:1;fill-rule:nonzero;stroke:none"
         transform="matrix(0.13333333,0,0,-0.13333333,0,648.70667)" />
      <path
         id="path8"
         d="m 1117.2,701.84 c -105.65,0 -179.38,61.562 -183.938,139.84 h 107.168 c 3.8,-31.918 33.45,-56.25 76.01,-56.25 41.79,0 64.6,19.011 64.6,43.332 0,75.25 -237.895,27.359 -237.895,181.648 0,69.93 62.325,126.17 166.445,126.17 101.85,0 163.41,-55.48 169.49,-139.1 h -101.84 c -3.04,32.69 -28.88,54.73 -70.69,54.73 -39.52,0 -60.04,-15.96 -60.04,-40.28 0,-76.758 233.33,-28.879 236.37,-183.168 0,-72.203 -63.09,-126.922 -165.68,-126.922"
         style="fill:#a81674;fill-opacity:1;fill-rule:nonzero;stroke:none"
         transform="matrix(0.13333333,0,0,-0.13333333,0,648.70667)" />
      <path
         id="path9"
         d="m 1386.98,1042.33 h -50.15 v 87.41 h 50.15 v 104.12 h 107.17 v -104.12 h 94.25 v -87.41 h -94.25 V 838.641 c 0,-28.121 11.41,-40.289 44.84,-40.289 h 49.41 V 708.68 h -66.89 c -80.56,0 -134.53,34.199 -134.53,130.718 v 202.932"
         style="fill:#a81674;fill-opacity:1;fill-rule:nonzero;stroke:none"
         transform="matrix(0.13333333,0,0,-0.13333333,0,648.70667)" />
      <path
         id="path10"
         d="m 1857.43,1043.09 c -57,0 -110.97,-42.56 -110.97,-122.36 0,-79.808 53.97,-125.41 110.97,-125.41 58.52,0 111.72,44.078 111.72,123.879 0,79.813 -53.2,123.891 -111.72,123.891 z m -27.36,93.49 c 67.64,0 114,-31.93 139.08,-66.89 v 60.05 h 107.17 V 708.68 h -107.17 v 61.558 c -25.08,-36.488 -72.96,-68.398 -139.84,-68.398 -106.41,0 -191.54,87.398 -191.54,218.89 0,131.48 85.13,215.85 192.3,215.85"
         style="fill:#a81674;fill-opacity:1;fill-rule:nonzero;stroke:none"
         transform="matrix(0.13333333,0,0,-0.13333333,0,648.70667)" />
      <path
         id="path11"
         d="m 2577.91,708.68 h -107.17 v 53.199 c -26.59,-35.719 -72.96,-58.527 -125.4,-58.527 -98.05,0 -168.73,63.847 -168.73,179.367 v 247.021 h 106.41 V 897.922 c 0,-67.641 37.24,-104.121 93.48,-104.121 57.77,0 94.24,36.48 94.24,104.121 v 231.818 h 107.17 V 708.68"
         style="fill:#a81674;fill-opacity:1;fill-rule:nonzero;stroke:none"
         transform="matrix(0.13333333,0,0,-0.13333333,0,648.70667)" />
      <path
         id="path12"
         d="m 2789.17,708.68 h -106.41 v 421.06 h 106.41 v -65.37 c 26.6,43.33 70.68,71.44 129.21,71.44 v -111.72 h -28.13 c -63.08,0 -101.08,-24.32 -101.08,-105.649 V 708.68"
         style="fill:#a81674;fill-opacity:1;fill-rule:nonzero;stroke:none"
         transform="matrix(0.13333333,0,0,-0.13333333,0,648.70667)" />
      <path
         id="path13"
         d="m 3182.09,1043.09 c -57,0 -110.97,-42.56 -110.97,-122.36 0,-79.808 53.97,-125.41 110.97,-125.41 58.52,0 111.72,44.078 111.72,123.879 0,79.813 -53.2,123.891 -111.72,123.891 z m -27.36,93.49 c 67.64,0 114,-31.93 139.08,-66.89 v 60.05 h 107.17 V 708.68 h -107.17 v 61.558 c -25.08,-36.488 -72.96,-68.398 -139.85,-68.398 -106.4,0 -191.53,87.398 -191.53,218.89 0,131.48 85.13,215.85 192.3,215.85"
         style="fill:#a81674;fill-opacity:1;fill-rule:nonzero;stroke:none"
         transform="matrix(0.13333333,0,0,-0.13333333,0,648.70667)" />
      <path
         id="path14"
         d="m 3799.96,941.242 c 0,67.648 -37.24,104.138 -93.48,104.138 -57.76,0 -95.01,-36.49 -95.01,-104.138 V 708.68 h -106.4 v 421.06 h 106.4 v -52.45 c 27.37,35.72 72.97,58.52 126.93,58.52 98.05,0 167.97,-63.83 167.97,-180.119 V 708.68 h -106.41 v 232.562"
         style="fill:#a81674;fill-opacity:1;fill-rule:nonzero;stroke:none"
         transform="matrix(0.13333333,0,0,-0.13333333,0,648.70667)" />
      <path
         id="path15"
         d="m 4024.15,1042.33 h -50.16 v 87.41 h 50.16 v 104.12 h 107.17 v -104.12 h 94.25 v -87.41 h -94.25 V 838.641 c 0,-28.121 11.4,-40.289 44.84,-40.289 h 49.41 V 708.68 h -66.89 c -80.56,0 -134.53,34.199 -134.53,130.718 v 202.932"
         style="fill:#a81674;fill-opacity:1;fill-rule:nonzero;stroke:none"
         transform="matrix(0.13333333,0,0,-0.13333333,0,648.70667)" />
      <path
         id="path16"
         d="m 4766.67,831.801 -130.72,129.211 c -50.17,-22.043 -73.73,-53.961 -73.73,-92.723 0,-44.848 36.48,-80.57 94.24,-80.57 43.33,0 79.05,15.191 110.21,44.082 z m -31.16,284.259 c 1.52,34.2 -19.01,51.68 -47.12,51.68 -28.89,0 -49.41,-19.01 -49.41,-44.84 0,-25.84 15.2,-48.65 48.65,-83.61 L 4821.4,907.051 c 1.51,1.519 2.27,3.789 3.8,6.078 l 43.32,72.203 h 110.96 l -53.2,-93.492 C 4915.63,871.32 4905,853.082 4893.59,835.602 L 5022.04,708.68 h -130.72 l -57.77,57 c -49.4,-44.078 -107.92,-66.121 -180.12,-66.121 -118.58,0 -196.1,63.843 -196.1,162.64 0,68.41 38.76,126.93 117.05,161.891 -28.12,34.21 -38.76,63.08 -38.76,98.04 0,72.21 58.52,128.45 155.81,128.45 99.57,0 151.25,-61.56 147.45,-134.52 h -103.37"
         style="fill:#a81674;fill-opacity:1;fill-rule:nonzero;stroke:none"
         transform="matrix(0.13333333,0,0,-0.13333333,0,648.70667)" />
      <path
         id="path17"
         d="m 5446.09,998.25 c 60.04,0 86.64,29.65 86.64,76.76 0,48.65 -26.6,77.52 -86.64,77.52 h -84.36 V 998.25 Z m 4.56,-85.879 h -88.92 V 708.68 h -106.41 v 530.5 h 195.33 c 127.69,0 191.54,-72.2 191.54,-164.17 0,-80.561 -54.73,-162.639 -191.54,-162.639"
         style="fill:#a81674;fill-opacity:1;fill-rule:nonzero;stroke:none"
         transform="matrix(0.13333333,0,0,-0.13333333,0,648.70667)" />
      <path
         id="path18"
         d="m 5909.69,1043.09 c -57,0 -110.97,-42.56 -110.97,-122.36 0,-79.808 53.97,-125.41 110.97,-125.41 58.51,0 111.72,44.078 111.72,123.879 0,79.813 -53.21,123.891 -111.72,123.891 z m -27.37,93.49 c 67.65,0 114.01,-31.93 139.09,-66.89 v 60.05 h 107.16 V 708.68 h -107.16 v 61.558 c -25.08,-36.488 -72.96,-68.398 -139.85,-68.398 -106.4,0 -191.53,87.398 -191.53,218.89 0,131.48 85.13,215.85 192.29,215.85"
         style="fill:#a81674;fill-opacity:1;fill-rule:nonzero;stroke:none"
         transform="matrix(0.13333333,0,0,-0.13333333,0,648.70667)" />
      <path
         id="path19"
         d="m 6339.07,708.68 h -106.4 v 421.06 h 106.4 v -65.37 c 26.6,43.33 70.69,71.44 129.21,71.44 v -111.72 h -28.12 c -63.09,0 -101.09,-24.32 -101.09,-105.649 V 708.68"
         style="fill:#a81674;fill-opacity:1;fill-rule:nonzero;stroke:none"
         transform="matrix(0.13333333,0,0,-0.13333333,0,648.70667)" />
      <path
         id="path20"
         d="m 6556.43,1042.33 h -50.16 v 87.41 h 50.16 v 104.12 h 107.16 v -104.12 h 94.25 v -87.41 h -94.25 V 838.641 c 0,-28.121 11.41,-40.289 44.85,-40.289 h 49.4 V 708.68 h -66.88 c -80.57,0 -134.53,34.199 -134.53,130.718 v 202.932"
         style="fill:#a81674;fill-opacity:1;fill-rule:nonzero;stroke:none"
         transform="matrix(0.13333333,0,0,-0.13333333,0,648.70667)" />
      <path
         id="path21"
         d="m 7124.15,1129.74 h 113.24 L 6976.7,509.551 h -113.24 l 91.2,209.769 -168.73,410.42 h 119.32 l 108.7,-294.138 110.2,294.138"
         style="fill:#a81674;fill-opacity:1;fill-rule:nonzero;stroke:none"
         transform="matrix(0.13333333,0,0,-0.13333333,0,648.70667)" />
      <path
         id="path22"
         d="m 7718.46,1246.02 c 117.8,0 213.57,-63.08 249.29,-171.77 h -122.37 c -25.08,50.93 -70.68,76.01 -127.68,76.01 -92.73,0 -158.85,-67.65 -158.85,-175.569 0,-107.171 66.12,-175.57 158.85,-175.57 57,0 102.6,25.078 127.68,76.758 h 122.37 c -35.72,-109.438 -131.49,-171.758 -249.29,-171.758 -152.77,0 -269.06,111.719 -269.06,270.57 0,158.849 116.29,271.329 269.06,271.329"
         style="fill:#a81674;fill-opacity:1;fill-rule:nonzero;stroke:none"
         transform="matrix(0.13333333,0,0,-0.13333333,0,648.70667)" />
      <path
         id="path23"
         d="m 8140.24,958.73 h 199.9 c -1.53,55.48 -45.61,90.44 -100.34,90.44 -50.91,0 -91.2,-32.68 -99.56,-90.44 z m 102.61,-256.89 c -122.37,0 -211.3,85.121 -211.3,217.359 0,133.011 86.65,217.381 211.3,217.381 121.6,0 207.49,-82.85 207.49,-208.26 0,-13.679 -0.76,-27.359 -3.05,-41.039 h -307.81 c 5.32,-62.32 47.88,-97.289 101.09,-97.289 45.6,0 70.68,22.809 84.36,50.93 H 8439.7 C 8416.89,763.402 8346.97,701.84 8242.85,701.84"
         style="fill:#a81674;fill-opacity:1;fill-rule:nonzero;stroke:none"
         transform="matrix(0.13333333,0,0,-0.13333333,0,648.70667)" />
      <path
         id="path24"
         d="m 8822.71,941.242 c 0,67.648 -37.23,104.138 -93.47,104.138 -57.77,0 -95.01,-36.49 -95.01,-104.138 V 708.68 h -106.41 v 421.06 h 106.41 v -52.45 c 27.36,35.72 72.97,58.52 126.92,58.52 98.05,0 167.97,-63.83 167.97,-180.119 V 708.68 h -106.41 v 232.562"
         style="fill:#a81674;fill-opacity:1;fill-rule:nonzero;stroke:none"
         transform="matrix(0.13333333,0,0,-0.13333333,0,648.70667)" />
      <path
         id="path25"
         d="m 9046.9,1042.33 h -50.15 v 87.41 h 50.15 v 104.12 h 107.17 v -104.12 h 94.25 v -87.41 h -94.25 V 838.641 c 0,-28.121 11.41,-40.289 44.85,-40.289 h 49.4 V 708.68 h -66.88 c -80.57,0 -134.54,34.199 -134.54,130.718 v 202.932"
         style="fill:#a81674;fill-opacity:1;fill-rule:nonzero;stroke:none"
         transform="matrix(0.13333333,0,0,-0.13333333,0,648.70667)" />
      <path
         id="path26"
         d="m 9431.46,708.68 h -106.41 v 421.06 h 106.41 v -65.37 c 26.6,43.33 70.68,71.44 129.2,71.44 v -111.72 h -28.12 c -63.09,0 -101.08,-24.32 -101.08,-105.649 V 708.68"
         style="fill:#a81674;fill-opacity:1;fill-rule:nonzero;stroke:none"
         transform="matrix(0.13333333,0,0,-0.13333333,0,648.70667)" />
      <path
         id="path27"
         d="m 9713.42,958.73 h 199.89 c -1.52,55.48 -45.6,90.44 -100.33,90.44 -50.92,0 -91.2,-32.68 -99.56,-90.44 z m 102.61,-256.89 c -122.38,0 -211.3,85.121 -211.3,217.359 0,133.011 86.65,217.381 211.3,217.381 121.6,0 207.47,-82.85 207.47,-208.26 0,-13.679 -0.7,-27.359 -3,-41.039 h -307.84 c 5.32,-62.32 47.88,-97.289 101.08,-97.289 45.61,0 70.68,22.809 84.37,50.93 h 114.79 C 9990.07,763.402 9920.15,701.84 9816.03,701.84"
         style="fill:#a81674;fill-opacity:1;fill-rule:nonzero;stroke:none"
         transform="matrix(0.13333333,0,0,-0.13333333,0,648.70667)" />
      <path
         id="path28"
         d="m 2057.56,355.602 c 73.96,0 132.73,-37.231 158.21,-103.352 h -53.39 c -18.61,41.141 -54.86,64.172 -104.82,64.172 -71.52,0 -124.9,-51.922 -124.9,-135.684 0,-83.2575 53.38,-135.1872 124.9,-135.1872 49.96,0 86.21,23.0312 104.82,63.6682 h 53.39 C 2190.29,43.6016 2131.52,6.85938 2057.56,6.85938 c -95.51,0 -170.45,71.51172 -170.45,173.87862 0,102.371 74.94,174.864 170.45,174.864"
         style="fill:#231f20;fill-opacity:1;fill-rule:nonzero;stroke:none"
         transform="matrix(0.13333333,0,0,-0.13333333,0,648.70667)" />
      <path
         id="path29"
         d="m 2398.95,44.5703 c 46.53,0 92.09,31.8399 92.09,99.9297 0,67.582 -44.58,99.422 -90.62,99.422 -47.02,0 -89.64,-31.84 -89.64,-99.422 0,-68.0898 41.64,-99.9297 88.17,-99.9297 z m 0,-39.17186 c -75.92,0 -133.72,53.87106 -133.72,139.10156 0,84.73 59.76,138.121 135.68,138.121 76.4,0 135.67,-53.391 135.67,-138.121 0,-85.2305 -61.22,-139.10156 -137.63,-139.10156"
         style="fill:#231f20;fill-opacity:1;fill-rule:nonzero;stroke:none"
         transform="matrix(0.13333333,0,0,-0.13333333,0,648.70667)" />
      <path
         id="path30"
         d="m 2791.77,161.641 c 0,54.859 -29.89,82.781 -74.94,82.781 -45.56,0 -76.91,-28.41 -76.91,-86.211 V 9.80078 h -44.57 V 278.211 h 44.57 V 240 c 17.64,27.922 49.96,43.109 86.21,43.109 62.21,0 109.72,-38.199 109.72,-115.109 V 9.80078 h -44.08 V 161.641"
         style="fill:#231f20;fill-opacity:1;fill-rule:nonzero;stroke:none"
         transform="matrix(0.13333333,0,0,-0.13333333,0,648.70667)" />
      <path
         id="path31"
         d="m 2918.62,241.48 h -34.77 v 36.731 h 34.77 v 67.598 h 44.57 v -67.598 h 70.05 V 241.48 h -70.05 V 83.2695 c 0,-26.4492 9.81,-35.7578 37.23,-35.7578 h 32.82 V 9.80078 h -40.16 c -47.51,0 -74.46,19.58982 -74.46,73.46872 V 241.48"
         style="fill:#231f20;fill-opacity:1;fill-rule:nonzero;stroke:none"
         transform="matrix(0.13333333,0,0,-0.13333333,0,648.70667)" />
      <path
         id="path32"
         d="m 3206.62,243.922 c -48.97,0 -90.61,-35.75 -90.61,-98.942 0,-63.1792 41.64,-100.4097 90.61,-100.4097 48.99,0 91.1,36.7383 91.1,99.9297 0,62.199 -42.11,99.422 -91.1,99.422 z m -8.82,38.699 c 49.96,0 84.25,-25.469 99.92,-53.391 v 48.981 h 45.07 V 9.80078 h -45.07 V 59.7617 C 3281.56,30.8594 3246.79,5.39844 3197.31,5.39844 c -71.51,0 -126.85,56.32036 -126.85,139.58156 0,83.762 55.34,137.641 127.34,137.641"
         style="fill:#231f20;fill-opacity:1;fill-rule:nonzero;stroke:none"
         transform="matrix(0.13333333,0,0,-0.13333333,0,648.70667)" />
      <path
         id="path33"
         d="m 3532.33,282.621 c 66.63,0 110.22,-34.289 123.93,-90.609 h -48 c -9.3,32.32 -36.25,52.898 -75.93,52.898 -48.97,0 -85.22,-34.781 -85.22,-100.41 0,-66.6094 36.25,-101.3906 85.22,-101.3906 39.68,0 66.14,19.1015 75.93,52.9023 h 48 c -13.71,-53.4023 -57.3,-90.61326 -123.93,-90.61326 -76.4,0 -130.77,53.87106 -130.77,139.10156 0,84.242 54.37,138.121 130.77,138.121"
         style="fill:#231f20;fill-opacity:1;fill-rule:nonzero;stroke:none"
         transform="matrix(0.13333333,0,0,-0.13333333,0,648.70667)" />
      <path
         id="path34"
         d="m 3725.32,241.48 h -34.77 v 36.731 h 34.77 v 67.598 h 44.57 v -67.598 h 70.05 V 241.48 h -70.05 V 83.2695 c 0,-26.4492 9.81,-35.7578 37.23,-35.7578 h 32.82 V 9.80078 h -40.16 c -47.51,0 -74.46,19.58982 -74.46,73.46872 V 241.48"
         style="fill:#231f20;fill-opacity:1;fill-rule:nonzero;stroke:none"
         transform="matrix(0.13333333,0,0,-0.13333333,0,648.70667)" />
      <path
         id="path35"
         d="m 3908.02,6.85938 c -17.15,0 -30.37,13.22262 -30.37,30.37112 0,17.1406 13.22,30.3593 30.37,30.3593 16.16,0 29.38,-13.2187 29.38,-30.3593 0,-17.1485 -13.22,-30.37112 -29.38,-30.37112 z m 0,209.64062 c -17.15,0 -30.37,13.219 -30.37,30.359 0,17.153 13.22,30.371 30.37,30.371 16.16,0 29.38,-13.218 29.38,-30.371 0,-17.14 -13.22,-30.359 -29.38,-30.359"
         style="fill:#231f20;fill-opacity:1;fill-rule:nonzero;stroke:none"
         transform="matrix(0.13333333,0,0,-0.13333333,0,648.70667)" />
      <path
         id="path36"
         d="M 4279.29,313.969 V 207.68 h 104.32 V 169.969 H 4279.29 V 64.1602 h -41.63 V 169.969 h -103.84 v 37.711 h 103.84 v 106.289 h 41.63"
         style="fill:#231f20;fill-opacity:1;fill-rule:nonzero;stroke:none"
         transform="matrix(0.13333333,0,0,-0.13333333,0,648.70667)" />
      <path
         id="path37"
         d="m 4653.5,269.891 c 0,40.648 -28.91,62.199 -73.48,62.199 -43.59,0 -72.98,-21.059 -72.98,-62.688 0,-36.742 29.87,-60.742 72.98,-60.742 43.59,0 73.48,24.492 73.48,61.231 z m -155.77,-163.11 c 0,-41.6326 31.84,-69.5505 82.29,-69.5505 50.45,0 81.8,28.4101 81.8,69.5505 0,45.551 -35.27,67.59 -81.8,67.59 -45.55,0 -82.29,-20.57 -82.29,-67.59 z m -33.79,168.489 c 0,51.921 39.19,94.039 116.08,94.039 76.9,0 116.57,-42.61 116.57,-94.039 0,-38.211 -22.04,-67.59 -56.81,-81.301 40.16,-12.25 66.12,-44.578 66.12,-88.66 C 4705.9,41.1484 4654.96,0 4580.02,0 c -74.45,0 -124.9,41.1484 -124.9,105.309 0,44.57 25.96,76.902 65.63,88.66 -36.24,14.203 -56.81,41.633 -56.81,81.301"
         style="fill:#231f20;fill-opacity:1;fill-rule:nonzero;stroke:none"
         transform="matrix(0.13333333,0,0,-0.13333333,0,648.70667)" />
      <path
         id="path38"
         d="m 4962.56,269.891 c 0,40.648 -28.91,62.199 -73.48,62.199 -43.59,0 -72.98,-21.059 -72.98,-62.688 0,-36.742 29.88,-60.742 72.98,-60.742 43.6,0 73.48,24.492 73.48,61.231 z M 4806.8,106.781 c 0,-41.6326 31.83,-69.5505 82.28,-69.5505 50.45,0 81.8,28.4101 81.8,69.5505 0,45.551 -35.26,67.59 -81.8,67.59 -45.54,0 -82.28,-20.57 -82.28,-67.59 z M 4773,275.27 c 0,51.921 39.19,94.039 116.08,94.039 76.91,0 116.57,-42.61 116.57,-94.039 0,-38.211 -22.04,-67.59 -56.81,-81.301 40.16,-12.25 66.12,-44.578 66.12,-88.66 C 5014.96,41.1484 4964.02,0 4889.08,0 c -74.45,0 -124.9,41.1484 -124.9,105.309 0,44.57 25.97,76.902 65.63,88.66 -36.24,14.203 -56.81,41.633 -56.81,81.301"
         style="fill:#231f20;fill-opacity:1;fill-rule:nonzero;stroke:none"
         transform="matrix(0.13333333,0,0,-0.13333333,0,648.70667)" />
      <path
         id="path39"
         d="m 5328.44,328.66 c -70.04,0 -79.35,-64.648 -79.35,-138.129 0,-76.402 9.31,-140.0818 79.35,-140.0818 69.55,0 78.85,63.6798 78.85,140.0818 0,73.481 -9.3,138.129 -78.85,138.129 z m 0,40.649 c 97.47,0 122.94,-77.379 122.94,-178.778 0,-102.8513 -25.47,-180.73022 -122.94,-180.73022 -97.96,0 -123.43,77.87892 -123.43,180.73022 0,101.399 25.47,178.778 123.43,178.778"
         style="fill:#231f20;fill-opacity:1;fill-rule:nonzero;stroke:none"
         transform="matrix(0.13333333,0,0,-0.13333333,0,648.70667)" />
      <path
         id="path40"
         d="m 5547.86,323.281 h -47.02 v 40.649 h 92.08 V 9.80078 h -45.06 V 323.281"
         style="fill:#231f20;fill-opacity:1;fill-rule:nonzero;stroke:none"
         transform="matrix(0.13333333,0,0,-0.13333333,0,648.70667)" />
      <path
         id="path41"
         d="m 5784.42,370.789 c 69.07,0 106.78,-40.168 106.78,-91.109 0,-40.649 -25.47,-72.489 -62.69,-80.821 v -2.449 c 41.15,-9.789 69.06,-40.168 69.06,-91.101 0,-54.8598 -38.2,-97.95744 -112.16,-97.95744 -67.11,0 -117.07,35.75784 -122.45,104.32044 h 43.09 c 4.42,-37.7111 31.85,-66.6134 78.87,-66.6134 47.51,0 70.04,27.9219 70.04,64.1604 0,49.961 -34.77,69.082 -98.45,69.082 h -11.27 v 37.211 H 5757 c 59.27,0.5 91.11,18.617 91.11,59.758 0,33.8 -22.53,57.312 -65.15,57.312 -41.63,0 -66.61,-23.512 -71.03,-57.801 h -43.59 c 4.41,60.739 50.45,96.008 116.08,96.008"
         style="fill:#231f20;fill-opacity:1;fill-rule:nonzero;stroke:none"
         transform="matrix(0.13333333,0,0,-0.13333333,0,648.70667)" />
      <path
         id="path42"
         d="M 6130.23,127.352 V 313.969 L 5998.48,127.352 Z m -1.96,-38.6918 H 5947.04 V 122.461 L 6118.96,360.5 h 53.39 V 127.352 h 48.99 V 88.6602 h -48.99 V 9.80078 h -44.08 V 88.6602"
         style="fill:#231f20;fill-opacity:1;fill-rule:nonzero;stroke:none"
         transform="matrix(0.13333333,0,0,-0.13333333,0,648.70667)" />
      <path
         id="path43"
         d="m 6260.51,45.5508 c 93.06,74.9412 181.23,145.4802 181.23,217.9692 0,39.179 -17.15,68.57 -65.15,68.57 -46.04,0 -69.55,-31.84 -71.51,-76.41 h -43.11 c 2.94,75.429 50.46,114.621 114.13,114.621 66.61,0 109.72,-39.192 109.72,-104.832 0,-88.16 -95.02,-163.098 -158.21,-214.5276 H 6496.1 V 13.7188 h -235.59 v 31.832"
         style="fill:#231f20;fill-opacity:1;fill-rule:nonzero;stroke:none"
         transform="matrix(0.13333333,0,0,-0.13333333,0,648.70667)" />
      <path
         id="path44"
         d="m 6727.77,129.801 c 0,-47.0197 27.44,-83.7502 83.27,-83.7502 46.05,0 74.95,30.8515 74.95,78.8472 0,49.961 -25.96,81.801 -76.91,81.801 -40.65,0 -81.31,-24 -81.31,-76.898 z M 6875.7,279.68 c -6.86,34.289 -26.94,54.371 -67.11,54.371 -56.32,0 -86.69,-38.692 -86.2,-144.012 15.19,34.781 53.88,54.383 96,54.383 66.12,0 110.7,-43.602 110.7,-118.051 0,-64.6522 -38.2,-117.55069 -115.59,-117.55069 -104.83,0 -129.81,75.42969 -129.81,182.69969 0,111.179 35.76,179.75 125.39,179.75 67.6,0 101.89,-42.122 107.77,-91.59 h -41.15"
         style="fill:#231f20;fill-opacity:1;fill-rule:nonzero;stroke:none"
         transform="matrix(0.13333333,0,0,-0.13333333,0,648.70667)" />
      <path
         id="path45"
         d="m 7190.64,251.762 c 0,48 -27.43,81.797 -78.36,81.797 -46.05,0 -74.95,-31.348 -74.95,-78.368 0,-45.55 25.47,-78.859 78.37,-78.859 42.62,0 74.94,27.918 74.94,75.43 z m -144,-146.942 c 6.37,-36.7302 29.87,-58.2809 71.03,-58.2809 51.91,0 79.83,35.2617 78.37,139.1019 -14.21,-29.879 -49.48,-47.02 -87.68,-47.02 -65.15,0 -113.64,40.649 -113.64,115.59 0,67.59 40.16,116.578 116.58,116.578 95.99,0 123.91,-67.598 123.91,-177.32 0,-118.0393 -26.93,-184.16041 -120,-184.16041 -70.53,0 -104.82,43.58981 -109.71,95.51141 h 41.14"
         style="fill:#231f20;fill-opacity:1;fill-rule:nonzero;stroke:none"
         transform="matrix(0.13333333,0,0,-0.13333333,0,648.70667)" />
      <path
         id="path46"
         d="M 7515.86,362.941 V 329.148 L 7379.7,9.80078 h -45.07 L 7472.75,324.742 h -189.06 v 38.199 h 232.17"
         style="fill:#231f20;fill-opacity:1;fill-rule:nonzero;stroke:none"
         transform="matrix(0.13333333,0,0,-0.13333333,0,648.70667)" />
      <path
         id="path47"
         d="m 7600.6,323.281 h -47.03 v 40.649 h 92.08 V 9.80078 H 7600.6 V 323.281"
         style="fill:#231f20;fill-opacity:1;fill-rule:nonzero;stroke:none"
         transform="matrix(0.13333333,0,0,-0.13333333,0,648.70667)" />
      <path
         id="path48"
         d="m 7716.67,45.5508 c 93.07,74.9412 181.23,145.4802 181.23,217.9692 0,39.179 -17.15,68.57 -65.15,68.57 -46.04,0 -69.55,-31.84 -71.51,-76.41 h -43.11 c 2.94,75.429 50.46,114.621 114.14,114.621 66.61,0 109.71,-39.192 109.71,-104.832 0,-88.16 -95.02,-163.098 -158.21,-214.5276 h 168.5 V 13.7188 h -235.6 v 31.832"
         style="fill:#231f20;fill-opacity:1;fill-rule:nonzero;stroke:none"
         transform="matrix(0.13333333,0,0,-0.13333333,0,648.70667)" />
      <path
         id="path49"
         d="m 8038.96,323.281 h -47.02 v 40.649 h 92.08 V 9.80078 h -45.06 V 323.281"
         style="fill:#231f20;fill-opacity:1;fill-rule:nonzero;stroke:none"
         transform="matrix(0.13333333,0,0,-0.13333333,0,648.70667)" />
      <path
         id="path50"
         d="m 4213.74,2160.15 c -56.91,-84.32 -230.45,-80.8 -271.86,33.32 -13.48,37.16 -19.05,77.19 -28.24,115.91 6.36,73.3 18.33,140.31 83.06,184.15 63.67,43.12 198.05,40.16 239.56,-72.92 32.97,-89.79 33.1,-178.05 -22.52,-260.46 z m -278.87,417.35 c -99.9,-60.06 -137.44,-153.25 -135.23,-265.72 0,-12.67 -0.88,-25.41 0.14,-38 8.84,-109.71 51.6,-200.54 158.72,-242.77 116.46,-45.91 231.72,-40.96 329.7,46.63 75.12,67.14 91.9,158.19 89.87,255.09 -4.7,223.49 -251.04,360.32 -443.2,244.77"
         style="fill:#a81674;fill-opacity:1;fill-rule:nonzero;stroke:none"
         transform="matrix(0.13333333,0,0,-0.13333333,0,648.70667)" />
      <path
         id="path51"
         d="m 5607.45,2185.21 c -12.18,-52.95 -48.08,-84.89 -97.14,-87.94 -56.47,-3.52 -96.47,20.58 -114.56,74.29 -18.59,55.24 -18.39,111.46 8.3,164.62 21.51,42.81 64.48,65.03 107.84,59.43 46.51,-6.01 83.17,-37.54 94.58,-84.14 5.42,-22.14 7.06,-45.22 10.29,-67.06 -3.19,-20.77 -4.96,-40.28 -9.31,-59.2 z m -106.78,299.66 c -134.46,-0.35 -232.87,-89.67 -233.96,-237.43 -1.09,-147.37 95.53,-242.88 232.01,-241.81 141.93,1.1 233.32,91.63 234.74,236.56 1.41,145.18 -91.98,242.55 -232.79,242.68"
         style="fill:#a81674;fill-opacity:1;fill-rule:nonzero;stroke:none"
         transform="matrix(0.13333333,0,0,-0.13333333,0,648.70667)" />
      <path
         id="path52"
         d="m 4824.67,2457.99 c -101.68,45.63 -201.77,34.24 -297.93,-18.24 -28.31,-15.45 -40.83,-41.07 -40.43,-74.71 1.13,-95.67 0.2,-191.36 0.47,-287.05 0.14,-48.06 19.63,-67.52 67.33,-65.85 16.7,0.6 33.24,5.65 51.93,9.04 0,101.7 -0.11,200.64 0.03,299.58 0.09,56.59 6.04,63.25 62.77,72.31 7.96,1.26 15.95,2.8 23.97,3.16 62.17,2.86 97.32,-30.25 97.52,-92.2 0.25,-73.78 0.03,-147.56 0.07,-221.34 0.02,-57.38 34.34,-83.05 89.88,-68.53 18.38,4.81 25.71,13.46 25.47,33.39 -1.14,94.52 -0.13,189.07 -1.07,283.6 -0.57,58.12 -27.14,103.11 -80.01,126.84"
         style="fill:#a81674;fill-opacity:1;fill-rule:nonzero;stroke:none"
         transform="matrix(0.13333333,0,0,-0.13333333,0,648.70667)" />
      <path
         id="path53"
         d="m 6255.61,2335.47 c -0.38,54.59 -26.17,95.82 -73.84,120.07 -85.52,43.5 -173.35,35.22 -261.28,5.76 -60.8,-20.38 -86.06,-59.86 -82.48,-125.53 4.64,-85.12 0.78,-170.68 1.39,-256.05 0.39,-53.22 29.86,-76.79 82.76,-67.24 10.1,1.82 19.81,5.8 34.02,10.07 0,99.43 -0.02,197.34 0.01,295.25 0.02,58.11 6.61,66.48 64.09,75.13 16.84,2.53 34.63,3.52 51.35,1 45.97,-6.95 67.39,-29.41 68.92,-75.9 2.58,-79.5 2.39,-159.09 3.56,-238.64 0.83,-55.48 34.52,-79.92 88.5,-65.14 16.18,4.44 24.54,11.44 24.29,30.57 -1.24,96.87 -0.63,193.77 -1.29,290.65"
         style="fill:#a81674;fill-opacity:1;fill-rule:nonzero;stroke:none"
         transform="matrix(0.13333333,0,0,-0.13333333,0,648.70667)" />
      <path
         id="path54"
         d="m 5154.79,2232.88 c 0,61.06 0.43,122.13 -0.15,183.2 -0.44,46.51 -10.35,55.61 -57.73,56.35 -6.91,0.1 -13.88,-0.66 -20.72,0.04 -27.86,2.87 -37.87,-7.89 -37.49,-37.15 1.58,-119.82 0.72,-239.67 0.81,-359.51 0,-6.91 -0.5,-13.97 0.69,-20.7 5.59,-31.59 33.02,-46.51 75.22,-43.4 31.21,2.3 41.85,16.22 40.21,48.36 -2.93,57.46 -0.83,115.19 -0.84,172.81"
         style="fill:#a81674;fill-opacity:1;fill-rule:nonzero;stroke:none"
         transform="matrix(0.13333333,0,0,-0.13333333,0,648.70667)" />
      <path
         id="path55"
         d="m 5097.23,2674.48 c -39.04,-0.4 -65.54,-26.66 -65.21,-64.63 0.32,-37.48 28.1,-64.79 65.91,-64.81 38.66,-0.03 64.32,26.18 64.19,65.55 -0.13,40.17 -24.63,64.3 -64.89,63.89"
         style="fill:#a81674;fill-opacity:1;fill-rule:nonzero;stroke:none"
         transform="matrix(0.13333333,0,0,-0.13333333,0,648.70667)" />
      <path
         id="path56"
         d="m 5284.3,4143.6 c 31.13,227.36 347.78,880.06 862.44,604.68 -203.18,17.92 -593.82,-94.59 -862.44,-604.68"
         style="fill:#5cb234;fill-opacity:1;fill-rule:nonzero;stroke:none"
         transform="matrix(0.13333333,0,0,-0.13333333,0,648.70667)" />
      <path
         id="path57"
         d="m 5312.2,4320.88 c 0,0 48.28,298.88 -98.56,544.45 147.34,-82.4 190.65,-311.81 98.56,-544.45"
         style="fill:#5cb234;fill-opacity:1;fill-rule:nonzero;stroke:none"
         transform="matrix(0.13333333,0,0,-0.13333333,0,648.70667)" />
      <path
         id="path58"
         d="m 5473.71,4336.23 c -113.27,-281.11 -920.88,-654.31 -482.25,-1553.38 133.29,55.74 458.01,31.51 656.73,324.73 26.93,70.57 105.88,232.28 79.97,414.4 -41.71,293.21 -203.56,416.82 -254.45,814.25"
         style="fill:#aa2a7d;fill-opacity:1;fill-rule:nonzero;stroke:none"
         transform="matrix(0.13333333,0,0,-0.13333333,0,648.70667)" />
      <path
         id="path59"
         d="m 4877.56,2865.24 c -523.44,266.58 -465.69,744.02 -191.44,1039.63 184.04,198.38 398.64,225.38 508.9,441.05 0,0 50.89,-36.35 67.85,-139.34 -106.62,-182.97 -680.96,-577.97 -385.31,-1341.34"
         style="fill:#aa2a7d;fill-opacity:1;fill-rule:nonzero;stroke:none"
         transform="matrix(0.13333333,0,0,-0.13333333,0,648.70667)" />
    </g>
  </g>
</svg>
